{
  "accessors": [
    {
      "bufferView": 1,
      "componentType": 5126,
      "count": 90,
      "max": [
        1,
        1,
        1
      ],
      "min": [
        -1,
        -1,
        -1
      ],
      "type": "VEC3"
    },
    {
      "bufferView": 1,
      "byteOffset": 1080,
      "componentType": 5126,
      "count": 90,
      "max": [
        1,
        1,
        1
      ],
      "min": [
        -1,
        -1,
        -1
      ],
      "type": "VEC3"
    },
    {
      "bufferView": 0,
      "componentType": 5125,
      "count": 126,
      "max": [
        89
      ],
      "min": [
        0
      ],
      "type": "SCALAR"
    },
    {
      "bufferView": 1,
      "byteOffset": 2160,
      "componentType": 5126,
      "count": 4,
      "max": [
        0,
        0.13432000577449799,
        0.13616999983787537
      ],
      "min": [
        0,
        -0.13432000577449799,
        -0.13616999983787537
      ],
      "type": "VEC3"
    },
    {
      "bufferView": 1,
      "byteOffset": 2208,
      "componentType": 5126,
      "count": 4,
      "max": [
        1,
        0,
        0
      ],
      "min": [
        1,
        0,
        0
      ],
      "type": "VEC3"
    },
    {
      "bufferView": 0,
      "byteOffset": 504,
      "componentType": 5125,
      "count": 6,
      "max": [
        3
      ],
      "min": [
        0
      ],
      "type": "SCALAR"
    },
    {
      "bufferView": 1,
      "byteOffset": 2256,
      "componentType": 5126,
      "count": 240,
      "max": [
        1.3965200185775757,
        16.70966911315918,
        1.3660199642181396
      ],
      "min": [
        -1.3355200290679932,
        -1.3660199642181396,
        -1.3660199642181396
      ],
      "type": "VEC3"
    },
    {
      "bufferView": 1,
      "byteOffset": 5136,
      "componentType": 5126,
      "count": 240,
      "max": [
        0,
        0.93907201290130615,
        0.93907201290130615
      ],
      "min": [
        -1,
        -0.93907201290130615,
        -0.93907201290130615
      ],
      "type": "VEC3"
    },
    {
      "bufferView": 0,
      "byteOffset": 528,
      "componentType": 5125,
      "count": 342,
      "max": [
        239
      ],
      "min": [
        0
      ],
      "type": "SCALAR"
    },
    {
      "bufferView": 1,
      "byteOffset": 8016,
      "componentType": 5126,
      "count": 576,
      "max": [
        0.073899999260902405,
        1.3170000314712524,
        1.3749799728393555
      ],
      "min": [
        -0.10763999819755554,
        -1.3170000314712524,
        -1.3749799728393555
      ],
      "type": "VEC3"
    },
    {
      "bufferView": 1,
      "byteOffset": 14928,
      "componentType": 5126,
      "count": 576,
      "max": [
        1,
        0.98838204145431519,
        0.98838204145431519
      ],
      "min": [
        0.15199030935764313,
        -0.98838204145431519,
        -0.98838204145431519
      ],
      "type": "VEC3"
    },
    {
      "bufferView": 0,
      "byteOffset": 1896,
      "componentType": 5125,
      "count": 864,
      "max": [
        575
      ],
      "min": [
        0
      ],
      "type": "SCALAR"
    },
    {
      "bufferView": 1,
      "byteOffset": 21840,
      "componentType": 5126,
      "count": 60,
      "max": [
        0.95105999708175659,
        1,
        1
      ],
      "min": [
        -0.95105999708175659,
        -1,
        -1
      ],
      "type": "VEC3"
    },
    {
      "bufferView": 1,
      "byteOffset": 22560,
      "componentType": 5126,
      "count": 60,
      "max": [
        1,
        0.95105600357055664,
        1
      ],
      "min": [
        -1,
        -0.95105600357055664,
        -1
      ],
      "type": "VEC3"
    },
    {
      "bufferView": 0,
      "byteOffset": 5352,
      "componentType": 5125,
      "count": 108,
      "max": [
        59
      ],
      "min": [
        0
      ],
      "type": "SCALAR"
    },
    {
      "bufferView": 1,
      "byteOffset": 23280,
      "componentType": 5126,
      "count": 60,
      "max": [
        0.95105999708175659,
        1,
        1
      ],
      "min": [
        -0.95105999708175659,
        -1,
        -1
      ],
      "type": "VEC3"
    },
    {
      "bufferView": 1,
      "byteOffset": 24000,
      "componentType": 5126,
      "count": 60,
      "max": [
        1,
        0.95105600357055664,
        1
      ],
      "min": [
        -1,
        -0.95105600357055664,
        -1
      ],
      "type": "VEC3"
    },
    {
      "bufferView": 0,
      "byteOffset": 5784,
      "componentType": 5125,
      "count": 108,
      "max": [
        59
      ],
      "min": [
        0
      ],
      "type": "SCALAR"
    },
    {
      "bufferView": 1,
      "byteOffset": 24720,
      "componentType": 5126,
      "count": 114,
      "max": [
        4.3747501373291016,
        1,
        1
      ],
      "min": [
        -1,
        -1,
        -1
      ],
      "type": "VEC3"
    },
    {
      "bufferView": 1,
      "byteOffset": 26088,
      "componentType": 5126,
      "count": 114,
      "max": [
        1,
        0.9999995231628418,
        1
      ],
      "min": [
        -1,
        -0.9999995231628418,
        -1
      ],
      "type": "VEC3"
    },
    {
      "bufferView": 0,
      "byteOffset": 6216,
      "componentType": 5125,
      "count": 252,
      "max": [
        113
      ],
      "min": [
        0
      ],
      "type": "SCALAR"
    },
    {
      "bufferView": 1,
      "byteOffset": 27456,
      "componentType": 5126,
      "count": 4,
      "max": [
        0.2134300023317337,
        0.821399986743927,
        0.77881002426147461
      ],
      "min": [
        0.2134300023317337,
        -0.85234999656677246,
        -0.83291000127792358
      ],
      "type": "VEC3"
    },
    {
      "bufferView": 1,
      "byteOffset": 27504,
      "componentType": 5126,
      "count": 4,
      "max": [
        1,
        0,
        0
      ],
      "min": [
        1,
        0,
        0
      ],
      "type": "VEC3"
    },
    {
      "bufferView": 0,
      "byteOffset": 7224,
      "componentType": 5125,
      "count": 6,
      "max": [
        3
      ],
      "min": [
        0
      ],
      "type": "SCALAR"
    }
  ],
  "asset": {
    "extras": {
      "author": "watercat (https://sketchfab.com/watercat)",
      "license": "CC-BY-4.0 (http://creativecommons.org/licenses/by/4.0/)",
      "source": "https://sketchfab.com/models/b44bfb783de14d0eb7fdcc1f4d748fbd",
      "title": "Fournaki"
    },
    "generator": "Sketchfab-3.42.2",
    "version": "2.0"
  },
  "bufferViews": [
    {
      "buffer": 0,
      "byteLength": 7248,
      "byteOffset": 0,
      "name": "floatBufferViews",
      "target": 34963
    },
    {
      "buffer": 0,
      "byteLength": 27552,
      "byteOffset": 7248,
      "byteStride": 12,
      "name": "floatBufferViews",
      "target": 34962
    }
  ],
  "buffers": [
    {
      "byteLength": 34800,
      "uri": "scene.bin"
    }
  ],
  "materials": [
    {
      "doubleSided": true,
      "emissiveFactor": [
        0,
        0,
        0
      ],
      "name": "Root",
      "pbrMetallicRoughness": {
        "baseColorFactor": [
          1,
          1,
          1,
          1
        ],
        "metallicFactor": 0,
        "roughnessFactor": 0.59999999999999998
      }
    },
    {
      "doubleSided": true,
      "emissiveFactor": [
        0,
        0,
        0
      ],
      "name": "Material",
      "pbrMetallicRoughness": {
        "baseColorFactor": [
          0.80000001190000003,
          0.80000001190000003,
          0.80000001190000003,
          1
        ],
        "metallicFactor": 0,
        "roughnessFactor": 0.59999999999999998
      }
    }
  ],
  "meshes": [
    {
      "name": "Cube_0",
      "primitives": [
        {
          "attributes": {
            "NORMAL": 1,
            "POSITION": 0
          },
          "indices": 2,
          "material": 1,
          "mode": 4
        }
      ]
    },
    {
      "name": "Cube.001_0",
      "primitives": [
        {
          "attributes": {
            "NORMAL": 4,
            "POSITION": 3
          },
          "indices": 5,
          "material": 1,
          "mode": 4
        }
      ]
    },
    {
      "name": "Cube.002_0",
      "primitives": [
        {
          "attributes": {
            "NORMAL": 7,
            "POSITION": 6
          },
          "indices": 8,
          "material": 0,
          "mode": 4
        }
      ]
    },
    {
      "name": "Cube.003_0",
      "primitives": [
        {
          "attributes": {
            "NORMAL": 10,
            "POSITION": 9
          },
          "indices": 11,
          "material": 0,
          "mode": 4
        }
      ]
    },
    {
      "name": "Cylinder_0",
      "primitives": [
        {
          "attributes": {
            "NORMAL": 13,
            "POSITION": 12
          },
          "indices": 14,
          "material": 0,
          "mode": 4
        }
      ]
    },
    {
      "name": "Cylinder.001_0",
      "primitives": [
        {
          "attributes": {
            "NORMAL": 16,
            "POSITION": 15
          },
          "indices": 17,
          "material": 0,
          "mode": 4
        }
      ]
    },
    {
      "name": "Cube.006_0",
      "primitives": [
        {
          "attributes": {
            "NORMAL": 19,
            "POSITION": 18
          },
          "indices": 20,
          "material": 0,
          "mode": 4
        }
      ]
    },
    {
      "name": "Cube.007_0",
      "primitives": [
        {
          "attributes": {
            "NORMAL": 22,
            "POSITION": 21
          },
          "indices": 23,
          "material": 0,
          "mode": 4
        }
      ]
    }
  ],
  "nodes": [
    {
      "children": [
        1
      ],
      "name": "RootNode (gltf orientation matrix)",
      "rotation": [
        -0.70710678118654746,
        -0,
        -0,
        0.70710678118654757
      ]
    },
    {
      "children": [
        2
      ],
      "name": "RootNode (model correction matrix)"
    },
    {
      "children": [
        3,
        5,
        7,
        9,
        11,
        13,
        15,
        17,
        19
      ],
      "name": "Root"
    },
    {
      "children": [
        4
      ],
      "matrix": [
        -0.29086000000000006,
        0.95517000000000007,
        -0.05519000000000001,
        0,
        -0.77110000000000001,
        -0.19988000000000003,
        0.60452000000000006,
        0,
        0.56639000000000006,
        0.21839000000000003,
        0.7946700000000001,
        0,
        4.0762500000000008,
        1.00545,
        5.9038600000000008,
        1
      ],
      "name": "Lamp"
    },
    {
      "name": "Lamp"
    },
    {
      "children": [
        6
      ],
      "matrix": [
        0.73684000000000016,
        0,
        0,
        0,
        0,
        1.13486,
        0,
        0,
        0,
        0,
        0.62553000000000003,
        0,
        0,
        0,
        0.91325000000000001,
        1
      ],
      "name": "Cube"
    },
    {
      "mesh": 0,
      "name": "Cube_0"
    },
    {
      "children": [
        8
      ],
      "matrix": [
        0.73684000000000016,
        0,
        0,
        0,
        0,
        1.13486,
        0,
        0,
        0,
        0,
        0.62553000000000003,
        0,
        0.71775000000000011,
        0.94932000000000005,
        1.2217499999999999,
        1
      ],
      "name": "Cube.001"
    },
    {
      "mesh": 1,
      "name": "Cube.001_0"
    },
    {
      "children": [
        10
      ],
      "matrix": [
        -0.0010600000000000002,
        0,
        0,
        0,
        0,
        0.011610000000000002,
        0,
        0,
        0,
        0,
        0.011610000000000002,
        0,
        0.73673000000000011,
        0.86126000000000003,
        1.0988599999999999,
        1
      ],
      "name": "Cube.002"
    },
    {
      "mesh": 2,
      "name": "Cube.002_0"
    },
    {
      "children": [
        12
      ],
      "matrix": [
        0.093050000000000022,
        0,
        0,
        0,
        0,
        0.093050000000000022,
        0,
        0,
        0,
        0,
        0.093050000000000022,
        0,
        0.74093000000000009,
        0.93830000000000002,
        0.83045999999999998,
        1
      ],
      "name": "Cube.003"
    },
    {
      "mesh": 3,
      "name": "Cube.003_0"
    },
    {
      "children": [
        14
      ],
      "matrix": [
        0.42368000000000006,
        0,
        0,
        0,
        0,
        0.42368000000000006,
        0,
        0,
        0,
        0,
        0.023040000000000005,
        0,
        0.099750000000000033,
        -0.23553000000000002,
        0.42712000000000006,
        1
      ],
      "name": "Cylinder"
    },
    {
      "mesh": 4,
      "name": "Cylinder_0"
    },
    {
      "children": [
        16
      ],
      "matrix": [
        0.46848000000000006,
        0,
        0,
        0,
        0,
        0.46848000000000006,
        0,
        0,
        0,
        0,
        0.013310000000000002,
        0,
        0.099750000000000033,
        -0.23553000000000002,
        0.45008000000000004,
        1
      ],
      "name": "Cylinder.001"
    },
    {
      "mesh": 5,
      "name": "Cylinder.001_0"
    },
    {
      "children": [
        18
      ],
      "matrix": [
        0.025270000000000004,
        0,
        0,
        0,
        0,
        0.94563000000000008,
        0,
        0,
        0,
        0,
        0.53582000000000007,
        0,
        0.7579300000000001,
        -0.17359000000000002,
        0.90366000000000002,
        1
      ],
      "name": "Cube.006"
    },
    {
      "mesh": 6,
      "name": "Cube.006_0"
    },
    {
      "children": [
        20
      ],
      "matrix": [
        0.025270000000000004,
        0,
        0,
        0,
        0,
        0.94563000000000008,
        0,
        0,
        0,
        0,
        0.53582000000000007,
        0,
        0.7579300000000001,
        -0.17359000000000002,
        0.90366000000000002,
        1
      ],
      "name": "Cube.007"
    },
    {
      "mesh": 7,
      "name": "Cube.007_0"
    }
  ],
  "scene": 0,
  "scenes": [
    {
      "name": "OSG_Scene",
      "nodes": [
        0
      ]
    }
  ]
}

